# xmcd
#
# Track frame offsets: 
#        183
#        32013
#        47963
#        64538
#        78375
#        96675
#        113238
#        135375
#        152838
#        167525
#        182238
#        200738
#
# Disc length: 3018 seconds
#
# Revision: 2
# Processed by: cddbd v1.5.2PL0 Copyright (c) Steve Scherf et al.
# Submitted via: ExactAudioCopy v1.0b5
#
DISCID=a50bc80c
DTITLE=Gepy and Gepy - Il Meglio
DYEAR=1997
DGENRE=Disco
TTITLE0=Body To Body
TTITLE1=Piu'
TTITLE2=Angela
TTITLE3=Angelo Blu
TTITLE4=Teneramente
TTITLE5=Blu
TTITLE6=Bellissimo
TTITLE7=Se Tu Fossi Me
TTITLE8=Sera Sara'
TTITLE9=Serenata Per Una Notte Blu
TTITLE10=Magic Music 
TTITLE11=Machine Man
EXTD=
EXTT0=
EXTT1=
EXTT2=
EXTT3=
EXTT4=
EXTT5=
EXTT6=
EXTT7=
EXTT8=
EXTT9=
EXTT10=
EXTT11=
PLAYORDER=
